<svg width="18" height="10" viewBox="0 0 18 10" fill="none" xmlns="http://www.w3.org/2000/svg">
<path d="M17.2 5.6041H0.7C0.3 5.6041 0 5.3041 0 4.9041C0 4.5041 0.3 4.2041 0.7 4.2041H17.2C17.6 4.2041 17.9 4.5041 17.9 4.9041C17.8 5.3041 17.5 5.6041 17.2 5.6041Z" fill="#2F2D2C"/>
<path d="M17.2 5.60405C17.1 5.60405 16.9 5.60405 16.8 5.50405L11 1.20405C10.7 1.00405 10.6 0.604052 10.9 0.304052C11 0.00405183 11.4 -0.0959482 11.7 0.104052L17.5 4.40405C17.8 4.60405 17.9 5.00405 17.6 5.30405C17.6 5.50405 17.4 5.60405 17.2 5.60405Z" fill="#2F2D2C"/>
<path d="M11.3001 9.80409C11.1001 9.80409 10.9001 9.70409 10.8001 9.50409C10.6001 9.20409 10.7001 8.80409 10.9001 8.60409L16.7001 4.30409C17.0001 4.10409 17.4001 4.20409 17.6001 4.40409C17.8001 4.70409 17.7001 5.10409 17.5001 5.30409L11.7001 9.60409C11.6001 9.80409 11.4001 9.80409 11.3001 9.80409Z" fill="#2F2D2C"/>
</svg>
