
<svg xmlns="http://www.w3.org/2000/svg" xmlns:xlink="http://www.w3.org/1999/xlink" viewBox="0 0 175.1 29.07"><defs><style>.cls-1{fill:none;}.cls-2{clip-path:url(#clip-path);}.cls-3{fill:url(#linear-gradient);}.cls-4{fill:url(#New_Gradient_Swatch_8);}.cls-5{fill:url(#New_Gradient_Swatch_8-2);}.cls-6{fill:url(#linear-gradient-2);}.cls-7{fill:url(#linear-gradient-3);}.cls-8{fill:#11c1ea;}.cls-9{fill:url(#New_Gradient_Swatch_27);}.cls-10{fill:url(#New_Gradient_Swatch_8-3);}.cls-11{fill:url(#New_Gradient_Swatch_27-2);}.cls-12{fill:#0c97c1;}.cls-13{fill:url(#linear-gradient-4);}.cls-14{fill:url(#linear-gradient-5);}.cls-15{fill:url(#New_Gradient_Swatch_8-4);}.cls-16{fill:url(#New_Gradient_Swatch_27-3);}.cls-17{fill:url(#New_Gradient_Swatch_25);}</style><clipPath id="clip-path" transform="translate(0.44 3.23)"><path class="cls-1" d="M6.6,0h5.92l6.6,24.46H14.28l-1.5-6.05H6.31L4.83,24.46H0Zm3,4.42-2.28,10h4.57ZM21.9,0h5.18q6,0,8.63,2.86c1.76,1.9,2.64,5,2.64,9.34s-.88,7.46-2.64,9.38-4.64,2.88-8.63,2.88H21.9Zm4.83,4.36V20.1H28a4.57,4.57,0,0,0,4.07-1.79c.8-1.2,1.21-3.23,1.21-6.11s-.41-4.87-1.21-6.06A4.56,4.56,0,0,0,28,4.36ZM50,20.43,54.25,0h4.87L53.3,24.46H46.6L40.79,0h4.86Zm28.09,4H62.8V0H78V4.26H67.64V9.53h9.42v4.26H67.64V20.2H78ZM93.47,12.91a2.38,2.38,0,0,1,1.25.68A8.19,8.19,0,0,1,96,15.66l4.43,8.8H95.14l-3-6.18c-.09-.17-.2-.41-.34-.72-.87-1.85-1.88-2.77-3-2.77H87.26v9.67H82.43V0h7q4.71,0,6.77,1.67c1.37,1.11,2.06,2.93,2.06,5.44a6.1,6.1,0,0,1-1.23,4A5.23,5.23,0,0,1,93.47,12.91ZM87.26,4.06v6.67h2.28A4.18,4.18,0,0,0,92.38,10a3.32,3.32,0,0,0,.86-2.56,3.32,3.32,0,0,0-.85-2.56,4.24,4.24,0,0,0-2.85-.77ZM113,24.46h-4.83V4.23h-6.21V0h17.25V4.23H113Zm9.42-9V0h4.83V16.64a4.13,4.13,0,0,0,.94,2.88,3.73,3.73,0,0,0,5.17,0,4.13,4.13,0,0,0,.94-2.88V0h4.83V15.43q0,5-2,7.24t-6.38,2.26q-4.36,0-6.36-2.26T122.38,15.43ZM142.74,0h5.77l2.91,10.73L154.32,0h5.8V24.46H156V4.86l-2.59,10.7h-3.85L146.9,4.86v19.6h-4.16Z"/></clipPath><linearGradient id="linear-gradient" x1="80.18" y1="29.07" x2="80.18" gradientUnits="userSpaceOnUse"><stop offset="0" stop-color="#fed835"/><stop offset="1" stop-color="#ff7000"/></linearGradient><linearGradient id="New_Gradient_Swatch_8" x1="11652.9" y1="-1148.35" x2="11677.02" y2="-1148.35" gradientTransform="matrix(-1, 0, 0, 1, 11730.91, 1162.88)" gradientUnits="userSpaceOnUse"><stop offset="0" stop-color="#ff7000"/><stop offset="1" stop-color="#fed835"/></linearGradient><linearGradient id="New_Gradient_Swatch_8-2" x1="44.26" y1="14.53" x2="78.01" y2="14.53" gradientTransform="matrix(1, 0, 0, 1, 0, 0)" xlink:href="#New_Gradient_Swatch_8"/><linearGradient id="linear-gradient-2" x1="44.26" y1="14.53" x2="78.01" y2="14.53" gradientUnits="userSpaceOnUse"><stop offset="0.01" stop-color="#0a0a54"/><stop offset="1" stop-color="#1c75bc"/></linearGradient><linearGradient id="linear-gradient-3" x1="19.45" y1="14.53" x2="47.33" y2="14.53" xlink:href="#linear-gradient-2"/><linearGradient id="New_Gradient_Swatch_27" y1="14.53" x2="44.26" y2="14.53" gradientUnits="userSpaceOnUse"><stop offset="0" stop-color="#ed1c24"/><stop offset="1" stop-color="#ff8e01"/></linearGradient><linearGradient id="New_Gradient_Swatch_8-3" x1="0" y1="14.53" x2="9.2" y2="14.53" gradientTransform="matrix(1, 0, 0, 1, 0, 0)" xlink:href="#New_Gradient_Swatch_8"/><linearGradient id="New_Gradient_Swatch_27-2" x1="11610.66" y1="-1148.35" x2="11652.9" y2="-1148.35" gradientTransform="matrix(-1, 0, 0, 1, 11730.91, 1162.88)" xlink:href="#New_Gradient_Swatch_27"/><linearGradient id="linear-gradient-4" x1="107.41" y1="14.53" x2="137.18" y2="14.53" xlink:href="#linear-gradient-2"/><linearGradient id="linear-gradient-5" x1="120.25" y1="14.53" x2="165.49" y2="14.53" gradientUnits="userSpaceOnUse"><stop offset="0" stop-color="#1c75bc"/><stop offset="0.99" stop-color="#0a0a54"/></linearGradient><linearGradient id="New_Gradient_Swatch_8-4" x1="120.25" y1="14.53" x2="165.49" y2="14.53" gradientTransform="matrix(1, 0, 0, 1, 0, 0)" xlink:href="#New_Gradient_Swatch_8"/><linearGradient id="New_Gradient_Swatch_27-3" x1="137.2" y1="14.53" x2="165.49" y2="14.53" xlink:href="#New_Gradient_Swatch_27"/><linearGradient id="New_Gradient_Swatch_25" x1="163.71" y1="29.07" x2="163.71" gradientUnits="userSpaceOnUse"><stop offset="0" stop-color="#af0b23"/><stop offset="1" stop-color="#ed1c24"/></linearGradient></defs><g id="Слой_2" data-name="Слой 2"><g id="Layer_1" data-name="Layer 1"><g class="cls-2"><polygon class="cls-3" points="78.01 0 71.92 29.07 88.43 29.07 78.01 0"/><polygon class="cls-4" points="78.01 0 71.92 29.07 53.89 29.07 78.01 0"/><polygon class="cls-5" points="44.26 29.07 53.89 29.07 78.01 0 44.26 29.07"/><polygon class="cls-6" points="47.33 0 44.26 29.07 78.01 0 47.33 0"/><polygon class="cls-7" points="47.33 0 19.45 0 44.26 29.07 47.33 0"/><polygon class="cls-8" points="19.45 0 0 0 44.26 29.07 19.45 0"/><polygon class="cls-9" points="0 0 9.2 29.07 44.26 29.07 0 0"/><polygon class="cls-10" points="0 0 0 29.07 9.2 29.07 0 0"/><polygon class="cls-11" points="78.01 0 88.43 29.07 120.25 29.07 78.01 0"/><polygon class="cls-8" points="78.01 0 93.16 0 120.25 29.07 78.01 0"/><polygon class="cls-12" points="93.16 0 120.25 29.07 107.41 0 93.16 0"/><polygon class="cls-13" points="107.41 0 120.25 29.07 137.18 0 107.41 0"/><polygon class="cls-14" points="137.18 0 120.25 29.07 165.49 0 137.18 0"/><polygon class="cls-15" points="120.25 29.07 137.2 29.07 165.49 0 120.25 29.07"/><polygon class="cls-16" points="137.2 29.07 152.31 29.07 165.49 0 137.2 29.07"/><polygon class="cls-17" points="165.49 0 152.31 29.07 175.1 29.07 165.49 0"/></g></g></g></svg>