<svg width="1331" height="1070" viewBox="0 0 1331 1070" fill="none" xmlns="http://www.w3.org/2000/svg">
<path d="M697.793 513L1305.53 1001.16" stroke="url(#paint0_linear_429_5)" stroke-miterlimit="10"/>
<path d="M697.881 514.57L1330.48 210.777" stroke="url(#paint1_linear_429_5)" stroke-miterlimit="10"/>
<path d="M697.793 514.682L975.594 8" stroke="url(#paint2_linear_429_5)" stroke-miterlimit="10"/>
<path d="M698.444 514.256L372.793 1" stroke="url(#paint3_linear_429_5)" stroke-miterlimit="10"/>
<path d="M697.88 515.119L1 197.187" stroke="url(#paint4_linear_429_5)" stroke-miterlimit="10"/>
<path d="M697.252 513C650.21 730.305 623.835 852.139 576.793 1069.44" stroke="url(#paint5_linear_429_5)" stroke-miterlimit="10"/>
<path d="M696.903 513L1.79297 891.968" stroke="url(#paint6_linear_429_5)" stroke-miterlimit="10"/>
<defs>
<linearGradient id="paint0_linear_429_5" x1="1000.96" y1="497.472" x2="1000.96" y2="1001.16" gradientUnits="userSpaceOnUse">
<stop stop-color="#fff"/>
<stop offset="1" stop-color="#fff" stop-opacity="0"/>
</linearGradient>
<linearGradient id="paint1_linear_429_5" x1="1014.18" y1="210.777" x2="1014.18" y2="514.57" gradientUnits="userSpaceOnUse">
<stop stop-color="#fff" stop-opacity="0"/>
<stop offset="1" stop-color="#fff"/>
</linearGradient>
<linearGradient id="paint2_linear_429_5" x1="836.693" y1="8" x2="836.693" y2="514.682" gradientUnits="userSpaceOnUse">
<stop stop-color="#fff" stop-opacity="0"/>
<stop offset="1" stop-color="#fff"/>
</linearGradient>
<linearGradient id="paint3_linear_429_5" x1="535.618" y1="1" x2="535.618" y2="514.256" gradientUnits="userSpaceOnUse">
<stop stop-color="#fff" stop-opacity="0"/>
<stop offset="1" stop-color="#fff"/>
</linearGradient>
<linearGradient id="paint4_linear_429_5" x1="349.44" y1="197.187" x2="349.44" y2="515.119" gradientUnits="userSpaceOnUse">
<stop stop-color="#fff" stop-opacity="0"/>
<stop offset="1" stop-color="#fff"/>
</linearGradient>
<linearGradient id="paint5_linear_429_5" x1="637.022" y1="494.972" x2="637.022" y2="1051.42" gradientUnits="userSpaceOnUse">
<stop stop-color="#fff"/>
<stop offset="1" stop-color="#fff" stop-opacity="0"/>
</linearGradient>
<linearGradient id="paint6_linear_429_5" x1="349.142" y1="507.002" x2="349.142" y2="891.968" gradientUnits="userSpaceOnUse">
<stop stop-color="#fff"/>
<stop offset="1" stop-color="#fff" stop-opacity="0"/>
</linearGradient>
</defs>
</svg>
