
<svg xmlns="http://www.w3.org/2000/svg" viewBox="0 0 115.78 131.66"><g data-name="Слой 2"><path d="M3.78 100.29l51.33 29.63h0a5.92 5.92 0 00.62.3h0a5.46 5.46 0 00.61.21h.15a4.64 4.64 0 00.51.11h.17a4.68 4.68 0 00.66 0 4.87 4.87 0 00.66 0h.17a4.64 4.64 0 00.51-.11h.15a6.26 6.26 0 00.61-.21h0c.21-.09.42-.19.62-.3h0L112 100.29a5.57 5.57 0 002.78-4.82V36.16a5.3 5.3 0 00-.18-1.36v-.13a5.34 5.34 0 00-.18-.52.69.69 0 010-.13 5.59 5.59 0 00-.3-.6 5.42 5.42 0 00-.37-.56l-.1-.12c-.11-.14-.23-.28-.35-.41l-.1-.1a5.53 5.53 0 00-1.1-.84h0L60.67 1.74a5.58 5.58 0 00-5.56 0L3.81 31.36a5.51 5.51 0 00-1.16.89l-.06.06a4.19 4.19 0 00-.39.45l-.08.09c-.13.18-.26.37-.38.57a4.15 4.15 0 00-.29.6l-.06.13c-.06.17-.12.35-.17.52a.65.65 0 000 .13A5.3 5.3 0 001 36.16v59.31a5.57 5.57 0 002.78 4.82zm99.89-8l-14.83 8.56V86.66a5.14 5.14 0 012.56-4.44l12.27-7.08zm0-29.95L80.5 75.67l-.12.08-.29.19-.19.15a1.3 1.3 0 00-.23.18l-.21.19-.18.17-.2.22-.15.18-.18.24-.14.21c0 .07-.09.15-.14.23l-.13.24a2.4 2.4 0 00-.11.23c0 .09-.08.17-.11.26l-.09.24A2.76 2.76 0 0078 79a2.68 2.68 0 00-.07.27l-.06.24v27.78l-14.27 8.24V69l40.22-23.22zM57.89 13l15.69 9-15.69 9.09L42.2 22zM31.08 28.45c.45.22.76.44 1.12.64l22.91 13.23s0 0 0 0a.23.23 0 00.15.1 2.49 2.49 0 01.51.21h0a5.57 5.57 0 002.07.41h0a5.42 5.42 0 002.55-.64l.2-.09h0l22.99-13.22 1.12-.64 13.41 7.74-40.22 23.22-40.22-23.22zm-19 17.37L52.33 69v46.44l-14.55-8.4V79.46a2 2 0 000-.24 2.68 2.68 0 00-.07-.27 2.76 2.76 0 00-.08-.27l-.09-.24-.11-.26-.27-.18-.16-.29-.15-.23c0-.07-.09-.14-.14-.21a1.88 1.88 0 00-.18-.24c0-.06-.1-.12-.15-.18l-.2-.22-.18-.17-.2-.19a1.81 1.81 0 00-.23-.18l-.2-.15a2.9 2.9 0 00-.29-.19l-.08-.08-22.88-13.2zm0 29.48l12 6.92a5.13 5.13 0 012.57 4.44v14l-14.55-8.4z" fill="none" stroke="#fff" stroke-miterlimit="10" stroke-width="2" opacity=".6" data-name="Layer 1"/></g></svg>